<svg xmlns="http://www.w3.org/2000/svg" viewBox="0 0 71.48 70.08"><defs><style>.cls-1{fill:#ce757e;}.cls-2{fill:none;stroke:#fff;stroke-miterlimit:10;stroke-width:2.35px;}.cls-3{fill:#fff;opacity:0.6;}</style></defs><title>Recurso 89</title><g id="Capa_2" data-name="Capa 2"><g id="Capa_2-2" data-name="Capa 2"><rect class="cls-1" width="71.48" height="70.08" rx="16.46"/><path class="cls-2" d="M26.66,16.59a11.82,11.82,0,0,1,8.7,3.91c.29.32.45.36.76,0A11.32,11.32,0,0,1,41.76,17a11.95,11.95,0,0,1,14.8,9,12.72,12.72,0,0,1,.18,4.35,19.51,19.51,0,0,1-5.66,11.42,49.59,49.59,0,0,1-7.86,6.52c-2.43,1.69-5,3.24-7.27,5.11-.12.1-.21.17-.38,0-3.44-2.76-7.3-4.93-10.76-7.67a31.57,31.57,0,0,1-7.54-8,17.36,17.36,0,0,1-2.63-9.18,11.91,11.91,0,0,1,9.23-11.61c.31-.08.62-.12.92-.18A16,16,0,0,1,26.66,16.59Z"/><path class="cls-3" d="M55.67,28.88a17.67,17.67,0,0,1-5,11.3,50.77,50.77,0,0,1-9.32,7.66c-1.8,1.22-3.64,2.39-5.37,3.71-.14.11-.23.16-.4,0-2.66-2-5.52-3.73-8.21-5.7a38.41,38.41,0,0,1-7.74-7.16,17.51,17.51,0,0,1-3.71-8.63,10.48,10.48,0,0,1,5.23-10.94,10.1,10.1,0,0,1,10.47.14A11.91,11.91,0,0,1,35.33,23c.08.12.17.22.25.34s.2.17.33,0c.31-.43.63-.84,1-1.26a10.09,10.09,0,0,1,8.19-4.25,10.37,10.37,0,0,1,10.44,8.41A9.09,9.09,0,0,1,55.67,28.88Z"/></g></g></svg>