<?xml version="1.0" ?><svg viewBox="0 0 64 64" xmlns="http://www.w3.org/2000/svg"><defs><style>.cls-1,.cls-3{fill:#fcc667;}.cls-1{fill-rule:evenodd;}.cls-2{fill:#f23d6c;}.cls-4{fill:#ae66d3;}.cls-5{fill:#ec1d57;}.cls-6{fill:#fe8657;}.cls-7{fill:#803cbf;}</style></defs><g id="Galaxy"><path class="cls-1" d="M15.06,44.11h-.22a1,1,0,0,0,0,2h.22v.23a1,1,0,0,0,2,0v-.23h.23a1,1,0,0,0,0-2h-.23v-.23a1,1,0,1,0-2,0Z"/><path class="cls-1" d="M24.21,39.67H24a1,1,0,1,0,0,2h.22v.22a1,1,0,0,0,2,0v-.22h.23a1,1,0,0,0,0-2h-.23v-.23a1,1,0,0,0-2,0Z"/><path class="cls-1" d="M54.72,31.1h-.23a1,1,0,0,0,0,2h.23v.23a1,1,0,0,0,2,0V33.1H57a1,1,0,0,0,0-2h-.23v-.22a1,1,0,1,0-2,0Z"/><path class="cls-1" d="M33.78,26.92h-.22a1,1,0,0,0,0,2h.22v.23a1,1,0,0,0,2,0v-.23H36a1,1,0,0,0,0-2h-.23V26.7a1,1,0,0,0-2,0Z"/><path class="cls-1" d="M26.47,17.33h-.23a1,1,0,1,0,0,2h.23v.22a1,1,0,0,0,2,0v-.22h.23a1,1,0,1,0,0-2h-.23V17.1a1,1,0,0,0-2,0Z"/><path class="cls-1" d="M30.9,8.68h-.22a1,1,0,0,0,0,2h.22v.22a1,1,0,0,0,2,0v-.22h.23a1,1,0,0,0,0-2H32.9V8.45a1,1,0,1,0-2,0Z"/><path class="cls-2" d="M18.54,27.1A4.16,4.16,0,1,1,14.39,23,4.15,4.15,0,0,1,18.54,27.1Z" id="path1517-6"/><path class="cls-3" d="M52.53,17.92a4.16,4.16,0,1,1-4.15-4.16A4.15,4.15,0,0,1,52.53,17.92Z" id="path1517-1-3"/><path class="cls-4" d="M44.82,44.87a4.16,4.16,0,1,1-4.15-4.16A4.15,4.15,0,0,1,44.82,44.87Z" id="path1517-4-9"/><path class="cls-5" d="M26.27,26.21a1,1,0,0,0-1.23.71,7.28,7.28,0,0,1-8.91,5.17A9.31,9.31,0,0,0,21,16.37a1,1,0,0,0-1.42,0,1,1,0,0,0,0,1.41,7.3,7.3,0,0,1-.14,10.46A9.31,9.31,0,0,0,12.78,17,9.27,9.27,0,0,0,5.72,18a1,1,0,1,0,1,1.73,7.29,7.29,0,0,1,10.07,2.85A9.3,9.3,0,0,0,3.32,33.11a1,1,0,0,0,1,.74,1.09,1.09,0,0,0,.26,0,1,1,0,0,0,.71-1.23,7.3,7.3,0,0,1,5.36-9,9.31,9.31,0,0,0,6.71,15.75,1,1,0,0,0,0-2A7.29,7.29,0,0,1,10,29.85,9.3,9.3,0,0,0,27,27.44,1,1,0,0,0,26.27,26.21Zm-8.73.89A3.16,3.16,0,1,1,14.39,24,3.16,3.16,0,0,1,17.54,27.1Z"/><path class="cls-6" d="M60.26,17a1,1,0,0,0-1.23.71,7.3,7.3,0,0,1-8.91,5.18A9.31,9.31,0,0,0,55,7.18,1,1,0,1,0,53.55,8.6a7.28,7.28,0,0,1-.15,10.46A9.31,9.31,0,0,0,39.71,8.78a1,1,0,0,0,1,1.73,7.29,7.29,0,0,1,10.07,2.85A9.3,9.3,0,0,0,37.31,23.92a1,1,0,0,0,1,.75,1.09,1.09,0,0,0,.25,0,1,1,0,0,0,.71-1.22A7.32,7.32,0,0,1,40,17.86a7.22,7.22,0,0,1,4.63-3.44,9.3,9.3,0,0,0,6.71,15.74,1,1,0,0,0,0-2A7.29,7.29,0,0,1,44,20.66a9.3,9.3,0,0,0,8,4.49,9.32,9.32,0,0,0,9-6.9A1,1,0,0,0,60.26,17Zm-8.73.9a3.16,3.16,0,1,1-3.15-3.16A3.16,3.16,0,0,1,51.53,17.92Z"/><path class="cls-7" d="M52.55,44a1,1,0,0,0-1.23.71,7.29,7.29,0,0,1-8.92,5.17,9.31,9.31,0,0,0,4.85-15.72,1,1,0,0,0-1.42,0,1,1,0,0,0,0,1.41A7.3,7.3,0,0,1,45.69,46,9.3,9.3,0,0,0,32,35.73a1,1,0,1,0,1,1.73,7.32,7.32,0,0,1,5.55-.73,7.22,7.22,0,0,1,4.52,3.58A9.3,9.3,0,0,0,29.6,50.87a1,1,0,0,0,1,.74,1.09,1.09,0,0,0,.26,0,1,1,0,0,0,.71-1.23,7.29,7.29,0,0,1,5.35-9A9.31,9.31,0,0,0,43.6,57.11a1,1,0,1,0,0-2,7.29,7.29,0,0,1-7.29-7.49,9.26,9.26,0,0,0,5.54,4.16,9.66,9.66,0,0,0,2.43.32,9.3,9.3,0,0,0,9-6.9A1,1,0,0,0,52.55,44Zm-8.73.9a3.16,3.16,0,1,1-3.15-3.16A3.16,3.16,0,0,1,43.82,44.87Z"/></g></svg>